#N canvas 846 379 450 300 10;
#X obj 58 55 inlet~;
#X obj 56 143 inlet~;
#X text 57 38 sig1;
#X text 54 125 sig2;
#X text 185 39 slider;
#X floatatom 183 148 5 0 0 0 - - -;
#X obj 184 55 inlet;
#X obj 131 198 *~;
#X floatatom 245 149 5 0 0 0 - - -;
#X obj 242 77 - 1;
#X obj 242 110 * -1;
#X obj 234 197 *~;
#X obj 181 235 +~;
#X obj 180 274 outlet~;
#X connect 0 0 7 0;
#X connect 1 0 11 0;
#X connect 5 0 7 1;
#X connect 6 0 5 0;
#X connect 6 0 9 0;
#X connect 7 0 12 0;
#X connect 8 0 11 1;
#X connect 9 0 10 0;
#X connect 10 0 8 0;
#X connect 11 0 12 1;
#X connect 12 0 13 0;
