#N canvas 131 229 994 910 10;
#X obj 235 96 adc~;
#X obj 235 505 dac~;
#X obj 339 294 freeverb~;
#X obj 488 77 hsl 128 15 0 1 0 0 empty empty empty -2 -8 0 10 -261234
-1 -1 3700 1;
#X floatatom 518 135 5 0 0 0 - - -;
#X msg 407 135 roomsize \$1;
#X obj 531 181 hsl 128 15 0 1 0 0 empty empty empty -2 -8 0 10 -262130
-1 -1 3700 1;
#X floatatom 546 236 5 0 0 0 - - -;
#X obj 543 298 hsl 128 15 0 1 0 0 empty empty empty -2 -8 0 10 -203904
-1 -1 4300 1;
#X floatatom 582 345 5 0 0 0 - - -;
#X msg 435 236 damping \$1;
#X msg 447 352 wet \$1;
#X msg 446 385 dry \$1;
#X obj 508 352 expr 1-$f1;
#X msg 477 458 freeze \$1;
#X msg 446 502 bypass \$1;
#X obj 477 423 tgl 15 0 empty empty empty 17 7 0 10 -262144 -1 -1 0
1;
#X obj 441 465 tgl 15 0 empty empty empty 17 7 0 10 -262144 -1 -1 0
1;
#N canvas 1348 382 774 731 noisy 1;
#N canvas 1494 270 450 300 drywet 1;
#X obj 48 45 inlet~;
#X obj 46 133 inlet~;
#X text 47 28 sig1;
#X text 44 115 sig2;
#X text 175 29 slider;
#X floatatom 173 138 5 0 0 0 - - -;
#X obj 174 45 inlet;
#X obj 121 188 *~;
#X floatatom 235 139 5 0 0 0 - - -;
#X obj 232 67 - 1;
#X obj 232 100 * -1;
#X obj 224 187 *~;
#X obj 171 225 +~;
#X obj 170 264 outlet~;
#X connect 0 0 7 0;
#X connect 1 0 11 0;
#X connect 5 0 7 1;
#X connect 6 0 5 0;
#X connect 6 0 9 0;
#X connect 7 0 12 0;
#X connect 8 0 11 1;
#X connect 9 0 10 0;
#X connect 10 0 8 0;
#X connect 11 0 12 1;
#X connect 12 0 13 0;
#X restore 80 403 pd drywet;
#X obj 131 88 env~;
#X floatatom 162 125 5 0 0 0 - - -;
#X obj 163 163 dbtorms;
#X floatatom 180 245 5 0 0 0 - - -;
#X obj 114 242 noise~;
#X obj 147 288 *~;
#X obj 49 45 inlet~;
#X obj 180 354 inlet;
#X obj 80 577 outlet~;
#X obj 79 530 *~ 0.75;
#X obj 133 330 *~ 1;
#X obj 81 473 +~;
#X floatatom 218 452 5 0 0 0 - - -;
#X obj 142 446 *~;
#X obj 201 406 * 0.008;
#X connect 0 0 12 0;
#X connect 1 0 2 0;
#X connect 2 0 3 0;
#X connect 3 0 4 0;
#X connect 4 0 6 1;
#X connect 5 0 6 0;
#X connect 5 0 14 0;
#X connect 6 0 11 0;
#X connect 7 0 0 0;
#X connect 7 0 1 0;
#X connect 8 0 0 2;
#X connect 8 0 15 0;
#X connect 10 0 9 0;
#X connect 11 0 0 1;
#X connect 12 0 10 0;
#X connect 14 0 12 1;
#X connect 15 0 13 0;
#X connect 15 0 14 1;
#X restore 251 222 pd noisy;
#X obj 54 154 hsl 128 15 0 1 0 0 empty empty empty -2 -8 0 10 -262144
-1 -1 3300 1;
#X text 481 555 dry/wet;
#X text 162 647 Move the slider to gradually blend the input signal
with noise \, immitating the sound of a distorted audio signal a la
Orville Peck's "Kansas Remembers Me";
#X connect 0 0 18 0;
#X connect 2 0 1 0;
#X connect 2 0 1 1;
#X connect 3 0 4 0;
#X connect 3 0 5 0;
#X connect 5 0 2 0;
#X connect 6 0 7 0;
#X connect 6 0 10 0;
#X connect 8 0 9 0;
#X connect 8 0 11 0;
#X connect 8 0 13 0;
#X connect 10 0 2 0;
#X connect 11 0 2 0;
#X connect 12 0 2 0;
#X connect 13 0 12 0;
#X connect 14 0 2 0;
#X connect 15 0 2 0;
#X connect 16 0 14 0;
#X connect 17 0 15 0;
#X connect 18 0 2 0;
#X connect 19 0 18 1;
