#N canvas 1666 280 845 910 10;
#X obj 43 341 HPS;
#X obj 248 337 HPS;
#X obj 342 336 HPS;
#X obj 435 336 HPS;
#X obj 534 329 HPS;
#X obj 650 327 HPS;
#X msg 263 289 7;
#X msg 363 287 12;
#X msg 458 288 16;
#X msg 542 274 19;
#X msg 653 276 24;
#N canvas 1602 523 654 654 sum7 0;
#X obj 28 48 inlet~;
#X obj 74 48 inlet~;
#X obj 122 48 inlet~;
#X obj 170 48 inlet~;
#X obj 221 48 inlet~;
#X obj 271 48 inlet~;
#X obj 319 48 inlet~;
#X obj 94 468 outlet~;
#X obj 59 108 +~;
#X obj 260 253 +~;
#X obj 157 175 +~;
#X obj 203 217 +~;
#X obj 99 148 +~;
#X obj 302 291 +~;
#X connect 0 0 8 0;
#X connect 1 0 8 1;
#X connect 2 0 12 1;
#X connect 3 0 10 1;
#X connect 4 0 11 1;
#X connect 5 0 9 1;
#X connect 6 0 13 1;
#X connect 8 0 12 0;
#X connect 9 0 13 0;
#X connect 10 0 11 0;
#X connect 11 0 9 0;
#X connect 12 0 10 0;
#X connect 13 0 7 0;
#X restore 180 553 pd sum7;
#X obj 231 466 *~;
#X obj 332 464 *~;
#X obj 424 461 *~;
#X obj 521 462 *;
#X obj 631 461 *~;
#X obj 92 316 vsl 15 128 0 1 0 0 empty empty empty 0 -9 0 10 -262144
-1 -1 0 1;
#X obj 285 320 vsl 15 128 0 1 0 0 empty empty empty 0 -9 0 10 -262144
-1 -1 0 1;
#X obj 382 318 vsl 15 128 0 1 0 0 empty empty empty 0 -9 0 10 -262144
-1 -1 0 1;
#X obj 480 317 vsl 15 128 0 1 0 0 empty empty empty 0 -9 0 10 -262144
-1 -1 0 1;
#X obj 586 311 vsl 15 128 0 1 0 0 empty empty empty 0 -9 0 10 -262144
-1 -1 0 1;
#X obj 691 315 vsl 15 128 0 1 0 0 empty empty empty 0 -9 0 10 -262144
-1 -1 0 1;
#X obj 46 462 *~;
#X msg 425 285 15;
#X msg 334 287 10;
#X msg 7 299 -5;
#X msg 43 278 -12;
#X obj 176 67 inlet~;
#X obj 114 740 outlet~;
#X obj 115 686 drywet;
#X obj 240 600 inlet;
#X connect 0 0 23 0;
#X connect 1 0 12 0;
#X connect 2 0 13 0;
#X connect 3 0 14 0;
#X connect 4 0 15 0;
#X connect 5 0 16 0;
#X connect 6 0 1 1;
#X connect 7 0 2 1;
#X connect 8 0 3 1;
#X connect 9 0 4 1;
#X connect 10 0 5 1;
#X connect 11 0 30 1;
#X connect 12 0 11 2;
#X connect 13 0 11 3;
#X connect 14 0 11 4;
#X connect 15 0 11 5;
#X connect 16 0 11 6;
#X connect 17 0 23 1;
#X connect 18 0 12 1;
#X connect 19 0 13 1;
#X connect 20 0 14 1;
#X connect 21 0 15 1;
#X connect 22 0 16 1;
#X connect 23 0 11 0;
#X connect 24 0 3 1;
#X connect 25 0 2 1;
#X connect 26 0 0 1;
#X connect 27 0 0 1;
#X connect 28 0 0 0;
#X connect 28 0 11 1;
#X connect 28 0 1 0;
#X connect 28 0 2 0;
#X connect 28 0 3 0;
#X connect 28 0 4 0;
#X connect 28 0 5 0;
#X connect 28 0 30 0;
#X connect 30 0 29 0;
#X connect 31 0 30 2;
