#N canvas 1814 410 740 617 10;
#X obj 141 179 pitchshifter;
#X msg 315 66 transpose \$1;
#X msg 354 117 window \$1;
#X msg 302 205 delay \$1;
#X obj 66 34 inlet~;
#X obj 314 40 inlet;
#X floatatom 354 97 5 0 0 0 - - -;
#X floatatom 301 168 5 0 0 0 - - -;
#X obj 102 329 outlet~;
#X floatatom 260 71 5 0 0 0 - - -;
#X connect 0 0 8 0;
#X connect 1 0 0 1;
#X connect 2 0 0 1;
#X connect 3 0 0 1;
#X connect 4 0 0 0;
#X connect 5 0 1 0;
#X connect 5 0 9 0;
#X connect 6 0 2 0;
#X connect 7 0 3 0;
