#N canvas 1150 569 1223 684 10;
#X obj 63 22 adc~;
#N canvas 988 560 450 300 drywet 1;
#X obj 48 45 inlet~;
#X obj 46 133 inlet~;
#X text 47 28 sig1;
#X text 44 115 sig2;
#X text 175 29 slider;
#X floatatom 173 138 5 0 0 0 - - -;
#X obj 174 45 inlet;
#X obj 121 188 *~;
#X floatatom 235 139 5 0 0 0 - - -;
#X obj 232 67 - 1;
#X obj 232 100 * -1;
#X obj 224 187 *~;
#X obj 171 225 +~;
#X obj 170 264 outlet~;
#X connect 0 0 7 0;
#X connect 1 0 11 0;
#X connect 5 0 7 1;
#X connect 6 0 5 0;
#X connect 6 0 9 0;
#X connect 7 0 12 0;
#X connect 8 0 11 1;
#X connect 9 0 10 0;
#X connect 10 0 8 0;
#X connect 11 0 12 1;
#X connect 12 0 13 0;
#X restore 70 393 pd drywet;
#X obj 195 307 vsl 15 128 0 1 0 0 empty empty empty 0 -9 0 10 -262144
-1 -1 5200 1;
#X obj 74 462 *~ 0.5;
#X obj 74 498 dac~;
#X obj 121 78 env~;
#X floatatom 152 115 5 0 0 0 - - -;
#X obj 153 153 dbtorms;
#X floatatom 170 235 5 0 0 0 - - -;
#X obj 104 232 noise~;
#X obj 137 278 *~;
#X connect 0 0 1 0;
#X connect 0 0 5 0;
#X connect 1 0 3 0;
#X connect 2 0 1 2;
#X connect 3 0 4 0;
#X connect 3 0 4 1;
#X connect 5 0 6 0;
#X connect 6 0 7 0;
#X connect 7 0 8 0;
#X connect 8 0 10 1;
#X connect 9 0 10 0;
#X connect 10 0 1 1;
