#N canvas 645 404 718 573 10;
#X obj 131 169 pitchshifter;
#X msg 305 56 transpose \$1;
#X msg 344 107 window \$1;
#X msg 283 171 delay \$1;
#X obj 80 255 drywet;
#X floatatom 210 264 5 0 0 0 - - -;
#X obj 56 24 inlet~;
#X obj 79 406 outlet~;
#X obj 304 30 inlet;
#X floatatom 344 87 5 0 0 0 - - -;
#X obj 284 142 inlet;
#X obj 197 226 inlet;
#X connect 0 0 4 1;
#X connect 1 0 0 1;
#X connect 2 0 0 1;
#X connect 3 0 0 1;
#X connect 4 0 7 0;
#X connect 6 0 4 0;
#X connect 6 0 0 0;
#X connect 8 0 1 0;
#X connect 9 0 2 0;
#X connect 10 0 3 0;
#X connect 11 0 4 2;
#X connect 11 0 5 0;
